<?xml version="1.0" encoding="iso-8859-1"?><!-- Generator: Adobe Illustrator 16.0.0, SVG Export Plug-In . SVG Version: 6.00 Build 0) --><!DOCTYPE svg PUBLIC "-//W3C//DTD SVG 1.1//EN" "http://www.w3.org/Graphics/SVG/1.1/DTD/svg11.dtd"><svg version="1.1" id="Layer_1" xmlns="http://www.w3.org/2000/svg" xmlns:xlink="http://www.w3.org/1999/xlink" x="0px" y="0px" width="221.827px" height="71.304px" viewBox="0 0 221.827 71.304" style="enable-background:new 0 0 221.827 71.304;" xml:space="preserve"><g><path style="fill:#226CB4;" d="M86.45,37.576c7.75-1.665,6.692-10.937,6.465-12.962c-0.382-3.125-4.055-8.582-9.039-8.146	c-6.275,0.559-7.191,9.623-7.191,9.623C75.835,30.288,78.713,39.246,86.45,37.576 M100.842,22.033c4.278,0,7.736-4.93,7.736-11.021	C108.578,4.922,105.12,0,100.842,0c-4.28,0-7.747,4.922-7.747,11.013C93.095,17.103,96.562,22.033,100.842,22.033 M119.286,22.758	c5.726,0.75,9.396-5.359,10.13-9.988c0.75-4.623-2.949-10-6.995-10.923c-4.063-0.934-9.135,5.57-9.592,9.813	C112.271,16.851,113.566,22.025,119.286,22.758 M141.965,30.535c0-2.214-1.833-8.888-8.66-8.888c-6.839,0-7.744,6.298-7.744,10.748	c0,4.248,0.354,10.171,8.848,9.987C142.895,42.194,141.965,32.765,141.965,30.535 M133.305,49.97c0,0-8.852-6.846-14.019-14.251	c-7.015-10.918-16.97-6.471-20.298-0.927c-3.318,5.558-8.476,9.068-9.214,10c-0.745,0.912-10.692,6.287-8.485,16.101	c2.212,9.808,9.969,9.622,9.969,9.622s5.717,0.559,12.347-0.924c6.644-1.479,12.36,0.363,12.36,0.363s15.498,5.197,19.732-4.803	C139.939,55.16,133.305,49.97,133.305,49.97"/><path style="fill:#FFFFFF;" d="M102.217,40.425v6.588h-5.368c0,0-5.365,0.445-7.243,6.525c-0.655,4.06,0.578,6.451,0.793,6.963	c0.217,0.51,1.951,3.479,6.305,4.35h10.073V40.496L102.217,40.425z M102.136,60.854h-4.058c0,0-2.827-0.147-3.688-3.401	c-0.444-1.443,0.066-3.109,0.29-3.764c0.205-0.656,1.154-2.172,3.111-2.755h4.344L102.136,60.854L102.136,60.854z"/><path style="fill:#FFFFFF;" d="M109.246,47.604v12.823c0,0,0.21,3.193,4.71,4.355h11.592V47.604h-5.003v12.897h-4.775	c0,0-1.526-0.221-1.812-1.449V47.528L109.246,47.604z"/><path style="fill:#CC2229;" d="M180.779,39.185v-5.407h-35.612l-0.046,5.486h15.309l-1.435,3.28h-13.019v27.131h30.928	c3.234,0,2.947-3.266,2.947-3.266V42.544h-13.039l1.146-3.359H180.779z M173.863,63.88c0,0-0.375,0.902-0.905,0.902h-20.524v-6.328	h21.43V63.88L173.863,63.88z M173.828,53.229h-21.396v-5.933h21.396V53.229z"/><path style="fill:#CC2229;" d="M221.471,33.922h-13.972v-2.737h-6.554v2.602h-16.027v35.832h5.766V38.41h30.787V33.922z M217.703,41.337v-2.073h-5.633v2.073h-11.588v-2h-5.336v2h-3.606l0.071,4.058h3.535v7.623h19.492c2.705,0,3.063-2.853,3.063-2.853	v-4.771h4.125v-4.059h-4.124V41.337z M212.07,48.167c0,0-0.502,0.924-1.145,0.924H200.42v-3.775h11.65V48.167L212.07,48.167z M192.327,58.576l8.972,5.203c-0.71,0.782-3.775,1.773-3.775,1.773h-5.982v4h8.122c2.424-0.496,6.909-2.776,6.909-2.776	c1.857,1.705,5.426,2.415,5.426,2.415h9.258v-3.99h-6.979c-1.881-0.281-3.57-1.353-3.57-1.353l10.55-6.058v-3.281h-28.928v4.066	H192.327z M210.997,58.509l-5.132,2.705l-4.704-2.705H210.997z"/><path style="fill:#CC2229;" d="M65.929,39.626h7.773v-6.847h-7.773V39.626z M65.929,69.474h7.773V42.61h-7.773V69.474z"/><path style="fill:#CC2229;" d="M53.29,42.634l-16.584-0.043v5.646h14.542c0,0,3.461,0.854,3.461,3.051v1.988H41.55	c0,0-5.175,0.477-6.837,6.66c-0.286,2.895,0.095,4.316,0.29,4.846c0.187,0.523,1.703,3.936,6.216,4.791h20.953V50.33	C62.172,50.33,61.174,43.728,53.29,42.634 M54.709,64.255h-10.59c-1.423-0.574-1.897-1.522-1.997-1.76	c-0.098-0.234-0.428-1.084-0.044-1.945c0.857-1.659,2.277-2.041,2.277-2.041h10.354V64.255z"/><path style="fill:#CC2229;" d="M33.004,60.05c0.229-6.541-5.639-8.801-5.639-8.801c4.967-2.599,4.336-9.146,4.336-9.146	c-0.538-10.021-12.782-9.554-12.782-9.554H0v37.347h21.362C33.907,69.847,33.004,60.05,33.004,60.05 M20.933,62.955v0.016H8.136	v-8.057H20.87L21.301,55c0,0,2.423,0.443,3.301,2.623c0,0,0.508,2.047-0.589,3.568C24.013,61.191,23.206,62.599,20.933,62.955 M23.646,45.639c0,0-0.86,1.581-3.142,1.921H8.136v-7.729h12.315c0,0,2.676-0.125,3.562,2.002	C24.013,41.833,24.545,44.091,23.646,45.639"/></g></svg>